G04 EAGLE Gerber RS-274X export*
G75*
%MOMM*%
%FSLAX34Y34*%
%LPD*%
%INSoldermask Top*%
%IPPOS*%
%AMOC8*
5,1,8,0,0,1.08239X$1,22.5*%
G01*
%ADD10R,1.403200X1.403200*%
%ADD11C,1.403200*%
%ADD12C,1.574800*%
%ADD13P,1.869504X8X22.500000*%
%ADD14C,1.303200*%
%ADD15C,1.422400*%
%ADD16C,1.603200*%
%ADD17C,1.727200*%
%ADD18C,1.574800*%
%ADD19P,1.704548X8X112.500000*%
%ADD20C,1.853200*%
%ADD21C,1.778200*%
%ADD22C,5.364200*%


D10*
X294640Y398780D03*
D11*
X314640Y398780D03*
D10*
X294640Y459740D03*
D11*
X314640Y459740D03*
D12*
X119380Y884682D02*
X119380Y898398D01*
X93980Y898398D02*
X93980Y884682D01*
D13*
X457200Y965200D03*
X457200Y939800D03*
X482600Y965200D03*
X482600Y939800D03*
X508000Y965200D03*
X508000Y939800D03*
X533400Y965200D03*
X533400Y939800D03*
X558800Y965200D03*
X558800Y939800D03*
D14*
X398780Y894080D03*
X581780Y894080D03*
D15*
X190500Y656590D03*
X190500Y704850D03*
D16*
X538480Y571500D03*
X538480Y673100D03*
X462280Y571500D03*
X462280Y673100D03*
D17*
X193040Y970280D02*
X193040Y985520D01*
X218440Y985520D02*
X218440Y970280D01*
X243840Y970280D02*
X243840Y985520D01*
X269240Y985520D02*
X269240Y970280D01*
D18*
X55880Y482600D03*
D19*
X30480Y482600D03*
X55880Y508000D03*
X30480Y508000D03*
X55880Y533400D03*
X30480Y533400D03*
X55880Y558800D03*
X30480Y558800D03*
X55880Y584200D03*
X30480Y584200D03*
X55880Y609600D03*
X30480Y609600D03*
X55880Y635000D03*
X30480Y635000D03*
X55880Y660400D03*
X30480Y660400D03*
X55880Y685800D03*
X30480Y685800D03*
X55880Y711200D03*
X30480Y711200D03*
X55880Y736600D03*
X30480Y736600D03*
X55880Y762000D03*
X30480Y762000D03*
X55880Y787400D03*
X30480Y787400D03*
X55880Y812800D03*
X30480Y812800D03*
X55880Y838200D03*
X30480Y838200D03*
X55880Y863600D03*
X30480Y863600D03*
X55880Y889000D03*
X30480Y889000D03*
X55880Y914400D03*
X30480Y914400D03*
X55880Y939800D03*
X30480Y939800D03*
X55880Y965200D03*
X30480Y965200D03*
D20*
X88900Y443700D03*
X88900Y358700D03*
X88900Y328700D03*
X215900Y443700D03*
X215900Y358700D03*
X215900Y328700D03*
X88900Y291300D03*
X88900Y206300D03*
X88900Y176300D03*
X215900Y291300D03*
X215900Y206300D03*
X215900Y176300D03*
X393700Y443700D03*
X393700Y358700D03*
X393700Y328700D03*
X520700Y443700D03*
X520700Y358700D03*
X520700Y328700D03*
X393700Y291300D03*
X393700Y206300D03*
X393700Y176300D03*
X520700Y291300D03*
X520700Y206300D03*
X520700Y176300D03*
X88900Y138900D03*
X88900Y53900D03*
X88900Y23900D03*
X393700Y138900D03*
X393700Y53900D03*
X393700Y23900D03*
X215900Y138900D03*
X215900Y53900D03*
X215900Y23900D03*
X520700Y138900D03*
X520700Y53900D03*
X520700Y23900D03*
D21*
X167640Y937260D03*
X142240Y937260D03*
X116840Y937260D03*
D20*
X474980Y853440D03*
X524980Y853440D03*
X474980Y708440D03*
X524980Y708440D03*
X499980Y708440D03*
D22*
X442980Y783440D03*
X556980Y783440D03*
M02*
