M48
;GenerationSoftware,Autodesk,EAGLE,9.6.2*%
;CreationDate,2020-11-28T08:45:30Z*%
FMAT,2
ICI,OFF
METRIC,TZ,000.000
T10C0.381
T9C0.700
T8C0.800
T7C0.813
T6C0.900
T5C0.914
T4C1.016
T3C1.050
T2C1.100
T1C3.441
%
G90
M71
T1
X55698Y78344
X44298Y78344
T2
X49998Y70844
X52498Y70844
X47498Y70844
X52498Y85344
X47498Y85344
X52070Y2390
X52070Y5390
X52070Y13890
X21590Y2390
X21590Y5390
X21590Y13890
X39370Y2390
X39370Y5390
X8890Y44370
X8890Y35870
X8890Y32870
X39370Y13890
X8890Y2390
X8890Y5390
X8890Y13890
X52070Y17630
X52070Y20630
X52070Y29130
X39370Y17630
X39370Y20630
X39370Y29130
X52070Y32870
X52070Y35870
X52070Y44370
X39370Y32870
X39370Y35870
X39370Y44370
X21590Y17630
X21590Y20630
X21590Y29130
X8890Y17630
X8890Y20630
X8890Y29130
X21590Y32870
X21590Y35870
X21590Y44370
T3
X16764Y93726
X14224Y93726
X11684Y93726
T4
X45720Y96520
X45720Y93980
X48260Y96520
X48260Y93980
X50800Y96520
X50800Y93980
X53340Y96520
X53340Y93980
X55880Y96520
X55880Y93980
X19304Y97790
X21844Y97790
X24384Y97790
X26924Y97790
T5
X3048Y78740
X5588Y78740
X3048Y76200
X5588Y76200
X3048Y73660
X5588Y73660
X3048Y71120
X5588Y71120
X3048Y68580
X5588Y68580
X3048Y66040
X5588Y66040
X3048Y63500
X5588Y63500
X3048Y60960
X5588Y60960
X3048Y58420
X5588Y58420
X3048Y55880
X5588Y55880
X3048Y53340
X5588Y53340
X3048Y50800
X5588Y50800
X3048Y48260
X5588Y48260
X5588Y81280
X3048Y81280
X5588Y83820
X3048Y83820
X11938Y89154
X9398Y89154
X3048Y96520
X5588Y96520
X3048Y93980
X5588Y93980
X3048Y91440
X5588Y91440
X5588Y86360
X3048Y86360
X5588Y88900
X3048Y88900
T6
X53848Y57150
X53848Y67310
X46228Y57150
X46228Y67310
T7
X19050Y65659
X19050Y70485
T8
X31464Y45974
X29464Y45974
X31464Y39878
X29464Y39878
T9
X39878Y89408
X58178Y89408
T10
X10922Y73406
X30480Y65532
X22098Y69088
X28956Y1778
X25400Y5588
X25400Y13970
X25400Y17780
X25400Y20320
X40132Y86360
X45720Y35052
X24638Y29464
X24638Y44958
X24638Y60960
X35814Y20828
X35814Y27686
X45720Y43688
X36830Y33782
X26924Y65532
X54085Y44196
X26162Y22860
X26162Y29464
X34544Y6604
X26670Y6604
X26670Y15240
X19558Y29718
X10668Y29718
X16764Y28448
X14224Y29718
X51308Y30988
X41402Y29972
X17780Y88646
X41402Y70866
X22098Y78232
X11430Y75946
X27178Y93726
X17018Y72390
X22860Y71882
X13208Y65278
X55626Y35814
X12692Y66048
X55880Y38100
X11684Y65278
X50800Y49530
X11286Y66802
X40640Y49530
X12446Y36830
X15240Y31750
X10414Y55880
X15240Y33020
X17780Y37084
X11570Y55781
X17780Y38100
X12446Y56134
X12700Y38354
X14986Y54864
X14325Y56705
X22860Y49784
X31750Y77470
X31750Y69850
X29210Y49784
X16256Y44859
X19812Y18034
X6858Y61976
X6858Y67310
X30734Y59944
X4318Y87630
X8382Y82550
X8382Y84328
X8636Y70104
X8636Y72136
X29873Y64770
X23622Y68326
X13462Y62230
X37592Y83058
X32766Y90678
X35814Y62992
X36576Y66802
X35814Y70866
X13462Y51816
X33020Y81026
X32766Y83058
X29972Y76454
X44958Y31750
X44958Y46990
X23622Y76962
X24638Y76962
X25908Y80772
X17018Y80772
X21336Y87376
X23622Y93726
X21590Y91186
X21590Y12192
X14224Y44704
X21336Y50800
X26924Y3556
X13970Y36830
X15240Y36830
X16510Y36830
X13970Y38354
X16510Y38354
X26670Y10160
X34290Y10160
X28956Y29972
X29718Y28448
X25908Y39116
X27686Y24892
X34036Y29210
X35306Y33782
X57658Y38354
X50546Y42672
X54102Y42672
X35560Y52070
X40640Y55880
X41402Y57912
X8890Y60452
X19050Y59944
X17526Y66802
X22606Y63500
X37846Y76454
X28448Y76962
X32766Y76200
X19050Y75184
X16764Y62484
X17526Y54102
X22860Y90932
X13462Y71120
X15748Y73406
X14732Y81534
X17526Y77470
X14732Y74676
X14732Y76708
X22860Y73406
X8382Y68580
X18034Y47752
X8382Y46482
X5588Y46482
X25654Y73406
X23622Y61976
X20320Y57150
X17323Y48661
X19558Y55880
X24130Y63500
X24638Y73152
X27686Y79502
X27686Y66294
X27432Y45466
X31464Y41434
X26924Y80264
X36830Y35306
M30